<?xml version="1.0" encoding="UTF-8"?>
<svg id="Layer_1" data-name="Layer 1" xmlns="http://www.w3.org/2000/svg" viewBox="0 0 1000 1000">
  <defs>
    <style>
      .cls-1 {
        letter-spacing: .28em;
      }

      .cls-2 {
        letter-spacing: .24em;
      }

      .cls-3 {
        letter-spacing: .18em;
      }

      .cls-4 {
        letter-spacing: .3em;
      }

      .cls-5, .cls-6, .cls-7 {
        fill: #d69e29;
      }

      .cls-5, .cls-8 {
        stroke-width: 0px;
      }

      .cls-9, .cls-10, .cls-11 {
        fill: none;
        stroke: #d69e29;
        stroke-miterlimit: 10;
      }

      .cls-9, .cls-11 {
        stroke-width: 13px;
      }

      .cls-6 {
        font-size: 52px;
      }

      .cls-6, .cls-7 {
        font-family: Garamond-Bold, Garamond;
        font-weight: 700;
      }

      .cls-10 {
        stroke-width: 7px;
      }

      .cls-8 {
        fill: #231f20;
      }

      .cls-7 {
        font-size: 150px;
      }

      .cls-11 {
        stroke-linecap: round;
      }
    </style>
  </defs>
  <path class="cls-8" d="m912.37,742.47c.06.02.08.02,0,0h0Z"/>
  <path class="cls-9" d="m714.7,743.2c-57.2,50.54-132.37,81.21-214.7,81.21s-157.5-30.67-214.7-81.21"/>
  <path class="cls-9" d="m188.48,590.83c-8.39-28.82-12.89-59.3-12.89-90.83,0-179.16,145.24-324.4,324.4-324.4s324.4,145.24,324.4,324.4c0,31.53-4.5,62.01-12.89,90.83"/>
  <g>
    <text class="cls-6" transform="translate(289.16 820.01) rotate(32.14)"><tspan x="0" y="0">П</tspan></text>
    <text class="cls-6" transform="translate(340.97 851.08) rotate(24.36)"><tspan x="0" y="0">Е</tspan></text>
    <text class="cls-6" transform="translate(388.99 871.58) rotate(16.75)"><tspan x="0" y="0">Р</tspan></text>
    <text class="cls-6" transform="translate(434.76 884.34) rotate(8.72)"><tspan x="0" y="0">У</tspan></text>
    <text class="cls-6" transform="translate(484.63 891.09) rotate(-.94)"><tspan x="0" y="0">К</tspan></text>
    <text class="cls-6" transform="translate(537.12 889.25) rotate(-9.56)"><tspan x="0" y="0">А</tspan></text>
    <text class="cls-6" transform="translate(585.97 879.74) rotate(-17.86)"><tspan x="0" y="0">Р</tspan></text>
    <text class="cls-6" transform="translate(631.05 864.44) rotate(-26.05)"><tspan x="0" y="0">Н</tspan></text>
    <text class="cls-6" transform="translate(684.58 836.77) rotate(-33.44)"><tspan x="0" y="0">Я</tspan></text>
    <text class="cls-6" transform="translate(726.01 808.13) rotate(-38.12)"><tspan x="0" y="0"> </tspan></text>
  </g>
  <path class="cls-10" d="m863.13,743.2c-78.43,116.88-211.8,193.8-363.13,193.8s-284.7-76.92-363.13-193.8"/>
  <path class="cls-10" d="m72.45,590.83c-6.19-29.3-9.45-59.69-9.45-90.83,0-241.35,195.65-437,437-437s437,195.65,437,437c0,31.15-3.26,61.53-9.45,90.83"/>
  <path class="cls-9" d="m839.84,743.2c-75.82,105.76-199.78,174.67-339.84,174.67s-264.02-68.91-339.84-174.67"/>
  <path class="cls-9" d="m92.03,590.83c-6.48-29.24-9.9-59.64-9.9-90.83,0-230.78,187.08-417.87,417.87-417.87s417.87,187.08,417.87,417.87c0,31.19-3.42,61.59-9.9,90.83"/>
  <g>
    <text class="cls-6" transform="translate(152.27 528.42) rotate(-92.08)"><tspan x="0" y="0">Ч</tspan></text>
    <text class="cls-6" transform="translate(151.18 478.44) rotate(-83.74)"><tspan x="0" y="0">О</tspan></text>
    <text class="cls-6" transform="translate(157.93 426.43) rotate(-75.65)"><tspan x="0" y="0">Л</tspan></text>
    <text class="cls-6" transform="translate(169.73 382.54) rotate(-67.52)"><tspan x="0" y="0">О</tspan></text>
    <text class="cls-6" transform="translate(190.71 334.5) rotate(-59.35)"><tspan x="0" y="0">В</tspan></text>
    <text class="cls-6" transform="translate(215.43 294.87) rotate(-52.87)"><tspan x="0" y="0">І</tspan></text>
    <text class="cls-6" transform="translate(234.92 269.36) rotate(-46.14)"><tspan x="0" y="0">Ч</tspan></text>
    <text class="cls-6" transform="translate(270.57 234.01) rotate(-39.42)"><tspan x="0" y="0">І</tspan></text>
    <text class="cls-6" transform="translate(295.96 213.96) rotate(-34.74)"><tspan x="0" y="0"> </tspan></text>
    <text class="cls-6" transform="translate(316.21 199.93) rotate(-28.83)"><tspan x="0" y="0">Т</tspan></text>
    <text class="cls-6" transform="translate(357.86 177.93) rotate(-21.2)"><tspan x="0" y="0">А</tspan></text>
    <text class="cls-6" transform="translate(400.87 162.45) rotate(-15.38)"><tspan x="0" y="0"> </tspan></text>
    <text class="cls-6" transform="translate(424.31 155.42) rotate(-8.02)"><tspan x="0" y="0">Ж</tspan></text>
    <text class="cls-6" transform="translate(488.68 148.42) rotate(-.93)"><tspan x="0" y="0">І</tspan></text>
    <text class="cls-6" transform="translate(520.83 148.14) rotate(7.02)"><tspan x="0" y="0">Н</tspan></text>
    <text class="cls-6" transform="translate(576.41 156.01) rotate(15.96)"><tspan x="0" y="0">О</tspan></text>
    <text class="cls-6" transform="translate(626.54 171.3) rotate(24.41)"><tspan x="0" y="0">Ч</tspan></text>
    <text class="cls-6" transform="translate(671.7 193.13) rotate(31.18)"><tspan x="0" y="0">І</tspan></text>
    <text class="cls-6" transform="translate(699.07 210.44) rotate(35.87)"><tspan x="0" y="0"> </tspan></text>
    <text class="cls-6" transform="translate(719 224.89) rotate(41.71)"><tspan x="0" y="0">С</tspan></text>
    <text class="cls-6" transform="translate(753.28 256.43) rotate(49.37)"><tspan x="0" y="0">Т</tspan></text>
    <text class="cls-6" transform="translate(783.32 292.76) rotate(56.79)"><tspan x="0" y="0">Р</tspan></text>
    <text class="cls-6" transform="translate(806.73 329.14) rotate(64.99)"><tspan x="0" y="0">И</tspan></text>
    <text class="cls-6" transform="translate(829.89 380.19) rotate(74.99)"><tspan x="0" y="0">Ж</tspan></text>
    <text class="cls-6" transform="translate(845.1 443.06) rotate(84.3)"><tspan x="0" y="0">К</tspan></text>
    <text class="cls-6" transform="translate(849.33 490.86) rotate(92.77)"><tspan x="0" y="0">И</tspan></text>
  </g>
  <g>
    <text class="cls-7" transform="translate(128.21 713.35)"><tspan class="cls-4" x="0" y="0">V</tspan><tspan class="cls-1" x="144.98" y="0">IV</tspan><tspan class="cls-2" x="388.35" y="0">I</tspan><tspan class="cls-3" x="483.75" y="0">EN</tspan></text>
    <text class="cls-7" transform="translate(128.21 713.35)"><tspan class="cls-4" x="0" y="0">V</tspan><tspan class="cls-1" x="144.98" y="0">IV</tspan><tspan class="cls-2" x="388.35" y="0">I</tspan><tspan class="cls-3" x="483.75" y="0">EN</tspan></text>
  </g>
  <line class="cls-11" x1="80.48" y1="743.19" x2="919.52" y2="743.19"/>
  <circle class="cls-5" cx="85.55" cy="743.19" r="11.56"/>
  <circle class="cls-5" cx="919.52" cy="743.19" r="11.56"/>
  <line class="cls-11" x1="38.74" y1="590.83" x2="961.26" y2="590.83"/>
  <circle class="cls-5" cx="38.74" cy="590.83" r="11.56"/>
  <circle class="cls-5" cx="961.26" cy="590.83" r="11.56"/>
  <path class="cls-10" d="m248.02,856.32s-64.73,12.91-71.74-27.83c-8.85-51.4-58.76-49.04-75.86-39.68-17.75,9.72,42.21,19.4,30.3-13.28-11.91-32.68-32.54-32.34-32.54-32.34"/>
  <path class="cls-10" d="m752.54,856.32s64.73,12.91,71.74-27.83c8.85-51.4,58.76-49.04,75.86-39.68s-42.21,19.4-30.3-13.28c11.91-32.68,32.54-32.34,32.54-32.34"/>
  <g>
    <g>
      <path class="cls-5" d="m597.45,400.85c6.06,3,12.09,2.66,16.28-.74,2.56-2.08,6.47-10.38,4.66-14.77-5.27-.43-9.16-.58-13.66-3.92-4.63-3.43-5.87-9.86-5.99-15.41-4.15,1.8-10.71,7.02-9.17,17.41,1.58,10.61,3.47,13.85,7.88,17.43Z"/>
      <path class="cls-5" d="m622.15,341.73c-6.57,3.13-10.84,6.46-13.61,9.4-3.52,3.74-5.25,10.13-5.09,15.26.26,8.55,2.58,13.9,13.68,10.91,1.66-.45,5.55-2.29,6.13-3.91,6.38-17.79,13.16-23.51,25.22-29.68-5.46-3.43-15.13-7.31-26.33-1.98Z"/>
    </g>
    <path class="cls-5" d="m726.74,429.93c-14.87-23.04-2.23-15.13-6.72-38.97-.56-2.95-4.47-13.02-4.06-13.26,1.66-.96,3.16,3.65,4.26,7.34.45,1.51,2.55-8.95,1.8-11.86-1.95-7.6-3.83-7.64-8.43-11.33-1.51-1.21-4.91-2.95-7.53-2.82.08,2.12-1.76,4.42-3.29,5.82-.61.56-2.2.79-2.54.31-.14-.19,1.23-1.09,1.9-2.45,1.01-2.05,1.78-3.23.59-5.27-22.03-16.57-68.27-25.94-80.26,38.06-1.34,7.15-5.7,9.3-14.62,12.55-5.96,2.17,2.55,45.7,27,42.02,0,0-1.45,37.19-12.43,54.72-13.72,21.91-8.17,61.36-8.17,61.36h106.3s4.6-13.53-37.87-53.19c-9.59-8.95-7.76-35.85,1.26-43.77,0,0,5.3-3.04,17.47,2.15,9.7,4.14,13.87-7.66,13.36-10.81-.51-3.15-.09-5.11-.09-5.11,0,0,4.94-.6,3.32-5.96,8.99-1.62-5.76-12.67,6.97-12.15,0,0,6.37-.44,1.78-7.42Zm-24.32-34.05c-4.44,6.37-12.12,17.08-19.44,22.91-14.28,11.37-23.55-5.82-28.06,4.48-1.19,2.71.8,7.16,2.24,9.12,1.93,2.61,5.79,6.88,4.57,6.27-15.74-7.83-12.23-28.41.24-22.99,4.77,2.07,8.81,2.99,14.64.34,6-2.73,24.45-20.94,31.2-35.52.67-1.45,1.15,6.01-5.39,15.39Z"/>
  </g>
  <g>
    <path class="cls-5" d="m515.58,293.39c1,7.93,4.23,15.25,9.29,20.94,3.06,3.42,6.6,6.05,10.44,7.82l-23.66,56.68,16.37,7.08,20.46-61.17c1.96-.09,3.91-.33,5.8-.82,14.72-3.76,25.13-19.05,24.74-36.37-.2-9.62-3.64-18.61-9.66-25.36-6.18-6.95-14.38-10.67-23.06-10.48-2.14.05-4.28.34-6.35.87h0c-11.26,2.86-19.98,12.49-23.3,24.62-.74-.02-1.52.01-2.28.21-4.36,1.1-6.99,5.53-5.88,9.89.9,3.43,3.79,5.76,7.09,6.09Zm26.8-31.33c1.36-.35,2.76-.54,4.16-.56,5.78-.13,11.32,2.43,15.59,7.22,4.48,5,7.02,11.78,7.18,19.08.29,12.83-7.04,24.06-17.43,26.7-1.35.35-2.77.53-4.16.58-5.78.12-11.32-2.45-15.59-7.23-4.47-4.99-7.02-11.78-7.18-19.07-.26-12.85,7.04-24.09,17.43-26.71Z"/>
    <path class="cls-5" d="m421.05,248.57c.92,1.97,22.35,14.85,21.48,27.13-1.03,4.37-1.37,8.96-.89,13.63,1.49,15.12,11.08,27.7,23.57,31.85l29.39,73.95,14.43,160.87,5.2,10.18.03-.7,2.73-12.04,9.86-158.65-18.89-9.8-24.79-63.77c6.1-2.02,11.47-6.1,15.47-11.87,5.16-7.41,7.47-16.77,6.52-26.33-1.72-17.22-13.9-31.17-28.98-33.09-2.11-.26-4.27-.29-6.4-.09-4.81.48-9.3,2.19-13.26,4.88-12.48,3.24-23.29-9-26.49-10.72-3.26-1.77-9.94,2.5-8.98,4.57Zm90.27,150.7c2.82-.03,5.13,2.22,5.17,5.05.03,2.83-2.22,5.13-5.03,5.17-2.82.03-5.13-2.22-5.16-5.05-.04-2.81,2.22-5.12,5.03-5.16Zm-55.18-130.69c3.66-5.26,8.84-8.49,14.59-9.07,1.4-.13,2.83-.11,4.21.08,10.62,1.37,19.24,11.63,20.52,24.4.72,7.26-.98,14.3-4.8,19.8-3.66,5.26-8.85,8.49-14.59,9.06-1.41.14-2.83.11-4.21-.07-10.63-1.37-19.25-11.64-20.53-24.41-.72-7.25.97-14.28,4.81-19.79Z"/>
  </g>
  <path class="cls-5" d="m410.84,437.4s-.07-.09-.1-.13c-10.29-13.06-13.28-31.97-12.33-50.72.38-7.5,5.19-19.41,6.83-22.1,1.64-2.69,3.6-10.27,6.74-16.7,4.99-10.21,1.79-21.53,1.79-21.53,0,0-1.47-4.69-4.76-12.62-3.29-7.92-8.68-17.93-16.61-22.74-5.51-3.34-29.51-8.11-38.58-5.49-24.15-2.81-29.02,4.29-29.02,4.29-15.96,2.11-16.29,10.64-15.37,15.89.96,5.49,2.03,7.42,4.34,8.8,1.87,1.12,13.96-2.3,10.66-1.17-15.15,5.18-16.27,19.91-16.27,22.01-1.85,3.51-3.66,5.92-4.23,9.07-.62,3.45.82,5.65,2.32,7.22.38,3.96-1.72,5.56-1.72,5.56,0,0-2.51,2.24-3.83,4.98-1.1,2.29-5.49,7.26-6.03,11.05-1.38,9.52,9.1,6.26,9.1,6.26,0,0-.32,1.38-.69,3.14,7.97-5.26,11.02-1.19,15.89,3.76,7.21,7.34,10.43.46,10.43.46-1.73,5.24-6.46,6.57-6.46,6.57-15.69,2.06-20.62-7.13-20.62-7.13-.22,1.14-.4,2.17-.47,2.84-.26,2.36,5.17,3.9,5.17,3.9-5.56,4.47.13,7.86.13,7.86-4.54,14.37,3.98,16.6,5.56,16.8,10.43,1.35,17.07-.42,23.3,2.12,2.73,1.11,1.47,8.18,1.91,11.81.22,1.84,3.34,6.39,3.83,8.17,1.54,5.6,4.88,9.64-8.55,29.36-10.67,17.59-17.42,36.64-17.53,54.13-.09,13.54,8.51,37.92,9.87,43.05h105.35l3.24-61.24c-1.35-44.79-13.15-54.69-23.26-67.54Zm-44.51-56.13c8.15-6.83,14.36-19.53,2.91-26.89,5.57-.88,10.4,1.74,11.61,9.08.14,10.16-13.19,26.74-14.53,17.81Z"/>
</svg>